#!OML:ASF H:\Punching\Project 1\Capture day 1\Session 1\female.ASF
:FULLY-SPECIFIED
:DEGREES
974
root -1.29827 12.623 5.50362 16.627 -23.4721 -5.66267
lowerback 12.0879 -4.3049 -4.04789
upperback -1.59948 -6.24131 1.314
thorax -7.89587 -2.8209 4.81011
lowerneck -0.00395787 13.0871 25.0507
upperneck 22.5557 17.8458 -8.98002
head 10.4171 9.64074 -5.10672
rclavicle 8.18993e-014 -2.8625e-014
rhumerus 19.2716 30.5264 -79.0649
rradius 133.501
rwrist -38.0143
rhand -18.4442 -4.15423
rfingers 7.12502
rthumb 7.84166 -33.9888
lclavicle 8.18993e-014 -2.8625e-014
lhumerus 33.0853 -7.8961 64.2799
lradius 73.9027
lwrist -6.45535
lhand -12.0659 31.5601
lfingers 7.12502
lthumb 13.9935 61.0691
rfemur -73.4304 11.6022 19.4262
rtibia 74.7781
rfoot -18.8093 9.78932
rtoes -0.426531
lfemur -21.1846 11.0838 3.123
ltibia 82.0904
lfoot -25.0206 -4.95156
ltoes -41.9128
975
root -1.28635 12.5846 5.49018 16.6413 -24.0276 -6.02138
lowerback 12.4478 -4.72984 -4.41622
upperback -1.49214 -6.86047 1.49787
thorax -7.85509 -3.10455 5.34102
lowerneck 0.533615 13.4313 25.2741
upperneck 22.5307 18.4905 -9.25685
head 10.4877 9.94513 -5.15434
rclavicle 1.43125e-014 -2.38542e-014
rhumerus 19.523 30.8132 -78.7838
rradius 133.241
rwrist -37.3897
rhand -18.5192 -4.26062
rfingers 7.12502
rthumb 7.76924 -34.0979
lclavicle 1.43125e-014 -2.38542e-014
lhumerus 34.9183 -5.27751 64.0144
lradius 66.784
lwrist -9.09731
lhand -11.4644 31.316
lfingers 7.12502
lthumb 14.5731 60.7841
rfemur -73.5541 11.9071 19.8307
rtibia 74.9053
rfoot -18.679 10.2562
rtoes -0.128206
lfemur -21.1113 11.638 3.56089
ltibia 82.765
lfoot -24.8972 -5.28965
ltoes -41.8292
976
root -1.27377 12.5478 5.47651 16.6684 -24.4179 -6.39592
lowerback 12.8525 -5.1433 -4.6598
upperback -1.3946 -7.44838 1.69027
thorax -7.85526 -3.37668 5.81495
lowerneck 0.944004 13.738 25.3805
upperneck 22.548 19.0506 -9.47443
head 10.5643 10.2036 -5.1711
rclavicle 1.14898e-013 3.02153e-014
rhumerus 19.7943 31.0946 -78.5158
rradius 133.032
rwrist -36.8012
rhand -18.542 -4.38499
rfingers 7.12502
rthumb 7.74719 -34.2231
lclavicle 1.14898e-013 3.02153e-014
lhumerus 36.4873 -2.58462 64.0893
lradius 60.3583
lwrist -11.0865
lhand -10.8951 30.8549
lfingers 7.12502
lthumb 15.1215 60.2825
rfemur -73.6487 12.0854 20.2742
rtibia 75.0329
rfoot -18.5611 10.6704
rtoes 0.172634
lfemur -21.1076 12.106 4.05689
ltibia 83.4275
lfoot -24.8104 -5.64941
ltoes -41.7828
977
root -1.26025 12.5128 5.4631 16.7246 -24.6742 -6.78945
lowerback 13.2705 -5.53349 -4.76415
upperback -1.30303 -7.98494 1.88194
thorax -7.88434 -3.62852 6.20851
lowerneck 1.2288 14.0066 25.3966
upperneck 22.5819 19.5293 -9.66471
head 10.6419 10.4166 -5.17196
rclavicle -7.95139e-014 -4.77083e-015
rhumerus 20.0726 31.3786 -78.2648
rradius 132.893
rwrist -36.2636
rhand -18.4984 -4.4956
rfingers 7.12502
rthumb 7.78926 -34.3321
lclavicle -7.95139e-014 -4.77083e-015
lhumerus 37.7389 0.174664 64.5184
lradius 55.0397
lwrist -12.2797
lhand -10.3634 30.2129
lfingers 7.12502
lthumb 15.6337 59.6012
rfemur -73.7346 12.1561 20.7547
rtibia 75.1553
rfoot -18.4547 11.0451
rtoes 0.467852
lfemur -21.167 12.5153 4.60144
ltibia 84.0695
lfoot -24.7657 -6.02175
ltoes -41.784
978
root -1.24572 12.4797 5.45058 16.814 -24.8374 -7.18902
lowerback 13.6539 -5.87314 -4.72159
upperback -1.20145 -8.42999 2.05178
thorax -7.91243 -3.843 6.48143
lowerneck 1.38038 14.2246 25.3435
upperneck 22.5903 19.9112 -9.85682
head 10.7075 10.5755 -5.17302
rclavicle -6.75868e-015 -2.8625e-014
rhumerus 20.3702 31.6252 -78.0161
rradius 132.826
rwrist -35.7743
rhand -18.4054 -4.57993
rfingers 7.12502
rthumb 7.87905 -34.4131
lclavicle -6.75868e-015 -2.8625e-014
lhumerus 38.6888 2.86533 65.1984
lradius 51.145
lwrist -12.5052
lhand -9.92465 29.5486
lfingers 7.12502
lthumb 16.0562 58.9033
rfemur -73.8275 12.1443 21.2522
rtibia 75.272
rfoot -18.3649 11.3786
rtoes 0.716483
lfemur -21.2719 12.8915 5.16611
ltibia 84.6771
lfoot -24.7715 -6.40952
ltoes -41.7979
979
root -1.23036 12.4489 5.43932 16.9377 -24.9386 -7.57477
lowerback 13.9851 -6.14323 -4.5445
upperback -1.09902 -8.75917 2.18998
thorax -7.94756 -4.00718 6.62384
lowerneck 1.42333 14.3754 25.248
upperneck 22.5553 20.1847 -10.0834
head 10.7537 10.6757 -5.19403
rclavicle 4.13472e-014 -7.95139e-015
rhumerus 20.65 31.8294 -77.7769
rradius 132.84
rwrist -35.3397
rhand -18.2618 -4.61738
rfingers 7.12502
rthumb 8.01766 -34.4453
lclavicle 4.13472e-014 -7.95139e-015
lhumerus 39.3255 5.31544 65.9911
lradius 48.8304
lwrist -11.6044
lhand -9.64958 29.0542
lfingers 7.12502
lthumb 16.3211 58.3874
rfemur -73.9449 12.0719 21.7393
rtibia 75.386
rfoot -18.2953 11.6744
rtoes 0.905616
lfemur -21.4114 13.2521 5.71909
ltibia 85.237
lfoot -24.8229 -6.80476
ltoes -41.8381
980
root -1.21456 12.4209 5.43008 17.0808 -25.0041 -7.90446
lowerback 14.2467 -6.32608 -4.26804
upperback -1.00023 -8.95475 2.28306
thorax -7.98739 -4.11111 6.63435
lowerneck 1.36636 14.4475 25.1146
upperneck 22.4745 20.3353 -10.3441
head 10.7755 10.7113 -5.23938
rclavicle 3.22031e-014 -2.54444e-014
rhumerus 20.8945 31.9796 -77.549
rradius 132.926
rwrist -34.962
rhand -18.0899 -4.5821
rfingers 7.12502
rthumb 8.18353 -34.4036
lclavicle 3.22031e-014 -2.54444e-014
lhumerus 39.6525 7.32273 66.7262
lradius 48.1008
lwrist -9.46095
lhand -9.5917 28.933
lfingers 7.12502
lthumb 16.3768 58.2616
rfemur -74.0976 11.9517 22.1681
rtibia 75.5054
rfoot -18.2464 11.9365
rtoes 1.02795
lfemur -21.5713 13.5965 6.203
ltibia 85.7315
lfoot -24.9109 -7.2029
ltoes -41.8847
981
root -1.19888 12.3965 5.42283 17.2334 -25.0506 -8.14828
lowerback 14.4345 -6.41056 -3.92695
upperback -0.913212 -9.0087 2.32392
thorax -8.03622 -4.14912 6.52157
lowerneck 1.2149 14.4352 24.9464
upperneck 22.3645 20.3523 -10.6192
head 10.774 10.6798 -5.30496
rclavicle -7.71285e-014 4.6118e-014
rhumerus 21.0845 32.0704 -77.3405
rradius 133.078
rwrist -34.6553
rhand -17.924 -4.48606
rfingers 7.12502
rthumb 8.3437 -34.3013
lclavicle -7.71285e-014 4.6118e-014
lhumerus 39.6798 8.77299 67.3224
lradius 48.8263
lwrist -6.11252
lhand -9.81435 29.2638
lfingers 7.12502
lthumb 16.1624 58.6099
rfemur -74.2955 11.8008 22.5007
rtibia 75.6353
rfoot -18.2152 12.1617
rtoes 1.09844
lfemur -21.7493 13.9278 6.57996
ltibia 86.1493
lfoot -25.0208 -7.59526
ltoes -41.9299
982
root -1.1841 12.3761 5.41724 17.3857 -25.0759 -8.28803
lowerback 14.5569 -6.39963 -3.55499
upperback -0.846075 -8.93184 2.31296
thorax -8.09975 -4.1247 6.30663
lowerneck 0.978854 14.3429 24.7479
upperneck 22.2539 20.2385 -10.8782
head 10.7555 10.585 -5.38051
rclavicle 1.44715e-013 7.95139e-015
rhumerus 21.2194 32.1117 -77.1701
rradius 133.273
rwrist -34.4449
rhand -17.7739 -4.30755
rfingers 7.12502
rthumb 8.48851 -34.1169
lclavicle 1.44715e-013 7.95139e-015
lhumerus 39.4276 9.64886 67.7458
lradius 50.8048
lwrist -1.69367
lhand -10.353 30.0258
lfingers 7.12502
lthumb 15.6437 59.4133
rfemur -74.5415 11.6307 22.7127
rtibia 75.7786
rfoot -18.196 12.3386
rtoes 1.12066
lfemur -21.9505 14.2432 6.83431
ltibia 86.485
lfoot -25.1354 -7.98844
ltoes -41.9646
983
root -1.17114 12.3599 5.41274 17.5268 -25.0687 -8.3148
lowerback 14.6167 -6.29842 -3.17856
upperback -0.793022 -8.73628 2.25063
thorax -8.16497 -4.04369 6.00493
lowerneck 0.647005 14.1803 24.5169
upperneck 22.1688 19.9964 -11.0783
head 10.7274 10.4307 -5.44849
rclavicle -6.75868e-015 -6.36111e-015
rhumerus 21.3211 32.0874 -77.0436
rradius 133.486
rwrist -34.3586
rhand -17.6498 -4.09235
rfingers 7.12502
rthumb 8.60832 -33.8969
lclavicle -6.75868e-015 -6.36111e-015
lhumerus 38.96 10.0327 68.0994
lradius 53.7928
lwrist 3.47409
lhand -11.2547 31.0886
lfingers 7.12502
lthumb 14.7751 60.5419
rfemur -74.8308 11.4518 22.7895
rtibia 75.9361
rfoot -18.1818 12.4509
rtoes 1.11978
lfemur -22.1804 14.5385 6.9662
ltibia 86.7391
lfoot -25.2404 -8.38899
ltoes -41.977
984
root -1.16099 12.3479 5.40818 17.6539 -25.0005 -8.24137
lowerback 14.6181 -6.11848 -2.8057
upperback -0.745421 -8.43888 2.14504
thorax -8.21733 -3.9149 5.63145
lowerneck 0.221118 13.9547 24.26
upperneck 22.1192 19.6315 -11.1944
head 10.6927 10.2213 -5.49928
rclavicle -3.06128e-014 -1.11319e-014
rhumerus 21.4166 31.9686 -76.96
rradius 133.686
rwrist -34.4358
rhand -17.5571 -3.85109
rfingers 7.12502
rthumb 8.69774 -33.6519
lclavicle -3.06128e-014 -1.11319e-014
lhumerus 38.3528 10.0013 68.4211
lradius 57.5219
lwrist 9.02838
lhand -12.5127 32.278
lfingers 7.12502
lthumb 13.5629 61.8162
rfemur -75.1543 11.2717 22.7387
rtibia 76.1056
rfoot -18.1645 12.4697
rtoes 1.09577
lfemur -22.4559 14.8082 7.00697
ltibia 86.9198
lfoot -25.3223 -8.81396
ltoes -41.9603
985
root -1.15463 12.34 5.40266 17.7607 -24.8406 -8.08725
lowerback 14.5705 -5.87298 -2.43711
upperback -0.694864 -8.05721 2.00733
thorax -8.24618 -3.74725 5.20195
lowerneck -0.290721 13.672 23.9715
upperneck 22.1132 19.1488 -11.2002
head 10.6515 9.96103 -5.52166
rclavicle 3.97569e-016 -1.27222e-014
rhumerus 21.5387 31.7317 -76.9096
rradius 133.839
rwrist -34.6921
rhand -17.5061 -3.64992
rfingers 7.12502
rthumb 8.74701 -33.4487
lclavicle 3.97569e-016 -1.27222e-014
lhumerus 37.6578 9.65334 68.7747
lradius 61.7577
lwrist 14.5189
lhand -13.9578 33.448
lfingers 7.12502
lthumb 12.1698 63.074
rfemur -75.493 11.0956 22.5771
rtibia 76.2856
rfoot -18.138 12.3658
rtoes 1.06275
lfemur -22.7846 15.0474 6.99732
ltibia 87.0359
lfoot -25.3763 -9.27549
ltoes -41.9181
986
root -1.15271 12.3362 5.39554 17.8331 -24.5536 -7.85626
lowerback 14.4795 -5.57324 -2.07534
upperback -0.625956 -7.60673 1.84309
thorax -8.23239 -3.54882 4.72639
lowerneck -0.893267 13.3353 23.6455
upperneck 22.1478 18.55 -11.0824
head 10.6035 9.65116 -5.50867
rclavicle 6.59965e-014 3.49861e-014
rhumerus 21.7094 31.3438 -76.8742
rradius 133.926
rwrist -35.1248
rhand -17.4964 -3.52735
rfingers 7.12502
rthumb 8.75631 -33.3257
lclavicle 6.59965e-014 3.49861e-014
lhumerus 36.9214 9.05202 69.1964
lradius 66.2797
lwrist 19.4479
lhand -15.3183 34.4594
lfingers 7.12502
lthumb 10.8577 64.1588
rfemur -75.8262 10.9127 22.3083
rtibia 76.4796
rfoot -18.1029 12.1129
rtoes 1.02629
lfemur -23.1756 15.2305 6.95289
ltibia 87.0941
lfoot -25.3961 -9.77473
ltoes -41.847
